<svg width="15" height="20" fill="none" xmlns="http://www.w3.org/2000/svg"><g clip-path="url(#clip0)" fill="#FF6B09"><path d="M13.6926 10.3704c-.1772-.39699-.4216-.7879-.7791-1.23942-.9014-1.13333-1.1764-3.6606-1.1795-3.68484-.0122-.12122-.0977-.22122-.2108-.25758-.1161-.03636-.2414-.00303-.3239.08788-1.0755 1.20303-.6233 3.0606-.3789 3.80303.0672.20303.1406.44242.1925.68485.3972 1.96058-.3697 2.84848-.55 3.02728-.1742.0485-.2933.0242-.4033-.0939-.37893-.4152-.50421-1.7758-.32698-3.54853.03669-.36061.0275-.68485-.02445-.98788C9.33442 5.98241 7.964 4.58477 7.61512 4.09462 6.65567 2.67644 6.5579.31583 6.55484.29462 6.55178.1825 6.48762.0825 6.38678.03402c-.09777-.04849-.21694-.04243-.30861.0212-1.60111 1.08789-1.46361 3.7091-1.24055 5.17273.05194.3394.15278.68485.32694 1.12122.62028 1.5606-.12222 3.57575-.12833 3.59394-.00611.01818-.01222.03333-.01528.05151-.09472.49698-.25361.79398-.43083.79398-.01834 0-.03667-.0031-.05806-.0091-.21694-.0455-.33-.2758-.33305-.4758-.01223-2.58484-2.60639-3.45453-2.63389-3.46362-.11611-.03637-.24445-.00303-.32389.0909-.0825.09394-.09778.22425-.04278.33334.03056.06363.12833.34242.06111 1.32727-.05805.88485-.22 1.76061-.47972 2.60001-.61722 2.0121-.51944 3.9182-.51333 4.0091.47462 5.1608 7.89674 6.0651 12.30169 3.1576.4827-.3182.8769-.6819 1.1672-1.0819 1.6256-2.2424.6692-5.2878-.0428-6.906zM2.40237 15.3007c.00917.1666-.11917.3091-.28722.3182h-.01834c-.16194 0-.29638-.1243-.30555-.2849-.0275-.4424-.02139-.906.01222-1.4091.01222-.1666.15889-.2909.32695-.2818.16805.0121.29638.1576.28416.3242-.03364.4788-.03972.9152-.01222 1.3334zm.14969-2.6849c-.01833.1546-.14972.2667-.3025.2667-.01222 0-.02444 0-.03972-.003-.165-.0212-.28417-.1697-.26583-.3364l.14666-1.1697c.02139-.1636.17111-.2818.34222-.2636.16806.0212.28723.1727.26584.3394l-.14667 1.1666zM11.6256 4.14541c-.1667-.0256-.281-.18006-.2553-.34533.0191-.12312.1295-.75343.4291-1.07037.1153-.12221.3084-.12857.4319-.01375.1231.11436.1294.30615.0139.42836-.1268.13421-.2349.5183-.2709.74812-.0258.16352-.1796.27827-.3487.25297zM.48605 5.65529c-.05849-.22537-.2038-.59703-.3433-.71837-.12695-.11039-.13963-.30185-.02835-.4276.111-.12606.3039-.13894.43117-.02812.32927.2863.50129.90287.53249 1.02345.04177.16203-.05668.32685-.2199.36858-.16684.0416-.33053-.05861-.37211-.21794z"/></g><defs><clipPath id="clip0"><path fill="#fff" d="M0 0h14.6667v20H0z"/></clipPath></defs></svg>