<svg width="40" height="48" fill="none" xmlns="http://www.w3.org/2000/svg"><g clip-path="url(#clip0)"><path d="M-.15347 47.638H40.0236c.1989-4.5818-.1293-12.1837-2.9463-15.8019l-.1018-.1299-6.1558-3.0908c.1337-.4508.1995-.8638.2259-1.1674.0304-.3644-.0198-.7067-.1499-1.0167-1.0156-2.4302-3.1645-3.7087-4.3466-4.2537.3603-.7257.5925-1.5049.7047-2.3009.6691-.1885 1.2073-.7188 1.3838-1.4262l.7185-2.9191c.1273-.5149.0474-1.049-.2263-1.5031-.1178-.1959-.2701-.3607-.4409-.5016 2.0258-4.60166-1.3671-8.94052-1.552-9.16891-3.6747-3.973-8.3168-3.23011-8.5622-3.18608-6.6991 1.40279-9.2844 6.53694-7.8248 12.55839-.4325.479-.6139 1.1463-.4537 1.8006l.722 2.9223c.1751.7022.7091 1.2306 1.3734 1.4213.205 1.4579.8221 2.7765 1.7284 3.8392v2.314c-9.61334 4.9231-3.522 1.7823-11.22612 5.6797-.01523.0728-3.61492 3.8985-3.07988 15.238l.03253.6928zm38.78097-1.4546h-6.6123v-2.7777l4.3733-10.0117c2.1909 3.6364 2.2723 10.5796 2.239 12.7894zm-9.0246-18.859c-.2552 2.9313-1.8627 2.0453-2.855 4.3036-.7805-.8582-1.0152-1.8873-.8055-2.989.379-2.0227-.8556-2.6235-.5505-4.7488l.0463-.0487v-.0068c.0262-.0293.2697-.3192.3401-.4108 2.6162 1.1404 3.8756 3.2614 3.8246 3.9005zm-14.0345-2.304c1.2145.8424 2.6805 1.3402 4.2574 1.3402 1.485 0 2.8955-.4321 4.1047-1.2278.1676 1.6709.8207 2.0054.589 3.2349-.0435.2283-.067.4532-.0809.6744l-4.5032 5.0753-5.7566-6.4899 1.3896-.7257v-1.8814zm-1.8104-6.2113v-2.8139-4.9442c.7008-1.29619 1.6562-2.23618 2.8436-2.79974 3.1802 1.79934 6.8407 4.48464 9.2955 7.18724-.0023 3.4416.0097 3.451-.0131 3.7338l-.0016.0179c-.1915 3.1253-2.7613 5.7159-6.0566 5.7159-3.2037 0-5.8635-2.5153-6.0558-5.7468-.0099-.1158-.012-.2319-.012-.3502zm-.8968 9.5203l7.0742 7.9748 4.7494-5.3528c.1085.3126.2608.6078.4349.893l-5.1843 6.4832-7.7308-9.6686.6566-.3296zm14.4843-10.6907v-2.2468c.0636-.073.6036-.6921.5399-.6191.0299 1.1376.1527-.2051-.5399 2.8659zM18.8428 2.60105c.2873.01789 4.1477-.58719 7.1986 2.70668.1201.15075 2.6037 3.35063 1.6059 6.85117-.3415-1.5577-.9367-3.55376-1.8775-4.50636l-1.0282 1.02415c.9288.94078 1.5389 3.80571 1.7713 5.29091-4.2606-4.45832-9.7567-7.28009-9.8321-7.32784-.2756.17143-2.6014.61361-4.2906 3.89664l-.0806.157v2.4112c-.0725.0008-.2854.003-.2129.0023-1.0733-5.18155.982-9.2977 6.7461-10.50585zM11.9441 14.6032l.3655 1.4808v1.5565l-.6075-2.4588c-.0891-.3665.1824-.5055.242-.5785zm-1.065 14.7212l9.0563 11.3264 6.1273-7.6635c.6665.5965.987.6811 2.4002 1.4078l-.4767-1.6168c-.1209-.4106.3579-1.0689.6471-1.3715.6456-.3502 1.1837-.8496 1.5863-1.4663l4.9992 2.5103-4.652 10.6503v3.0823H9.30327v-3.0827L4.64915 32.4519l6.22995-3.1275zm-7.39825 4.0728l4.37407 10.0089v2.7773H1.24255c-.03323-2.2091.0488-9.1488 2.2383-12.7862z" fill="#FF6B09"/></g><defs><clipPath id="clip0"><path fill="#fff" d="M0 0h39.8298v48H0z"/></clipPath></defs></svg>