<svg width="42" height="48" fill="none" xmlns="http://www.w3.org/2000/svg"><g clip-path="url(#clip0)" fill="#FF6B09"><path d="M.81265 20.6131c0 .5353-.81265.5353-.81265 0C0 9.23114 9.23114 0 20.6131 0 32 0 41.2263 9.23114 41.2263 20.6131c0 .5353-.8078.5353-.8078 0 0-7.6934-12.6423-7.6983-12.6423 0 0 .5353-.8322.5353-.8322 0 0-7.6739-12.6618-7.6739-12.6618 0 0 .5353-.8321.5353-.8321 0 0-7.6593-12.63745-7.7129-12.63745 0zm12.71045-2.9878c.219-4.4282.9149-8.39902 1.927-11.43065.8078-2.40876 1.8297-4.23845 2.9879-5.26521C9.74696 1.87835 2.71046 8.46715 1.13869 17.0122c2.9927-4.3163 9.90271-3.9708 12.38441.6131zm13.3577-.1995c-.2239-4.2579-.9003-8.06814-1.8735-10.97325-2.511-7.51824-6.2774-7.51824-8.7883 0-.9733 2.90511-1.6448 6.71535-1.8735 10.97325 2.7007-4.5888 9.8345-4.5888 12.5353 0zm13.2068-.4136C38.5207 8.46715 31.4842 1.87835 22.7883.92944c1.163 1.02676 2.1801 2.85645 2.9879 5.26521 1.0121 3.03163 1.708 7.00245 1.927 11.43065 2.4963-4.6083 9.4257-4.8808 12.3844-.6131zM17.9077 30.0449v-4.1858c-.7543.5013-1.348 1.2752-1.348 2.2194 0 .9199.6034 1.5283 1.348 1.9664zm.8126 1.2995c-1.4452-.6619-2.9683-1.4358-2.9683-3.2659 0-1.8885 1.4355-2.8327 2.9683-3.5385v6.8044zM23.3185 36.36v4.2336c.764-.5061 1.3626-1.2846 1.3626-2.2287 0-.9294-.6132-1.5572-1.3626-2.0049zm-.8078-1.3041c1.4502.6715 2.983 1.4696 2.983 3.309 0 1.893-1.4452 2.837-2.983 3.5377v-6.8467z"/><path d="M23.3188 21.095c3.3284.7688 6.7494 3.2604 6.7494 6.9831 0 3.1874-5.3869 3.0706-5.3869 0 0-.9489-.5985-1.7275-1.3625-2.2288v5.9564c3.0803 1.0073 6.7591 2.8127 6.7591 6.5598 0 3.7276-3.4209 6.2142-6.7591 6.9782-.0146 3.5476-5.4015 3.5427-5.4112-.0048-1.8978-.438-3.5475-1.3237-4.7397-2.4964-1.2506-1.2361-1.9902-2.7884-1.9902-4.477 0-3.1388 5.3819-3.1388 5.3819 0 0 .9392.5937 1.7129 1.348 2.2141v-5.9514c-3.056-.9879-6.7543-2.8468-6.7543-6.5598 0-3.7276 3.4209-6.2143 6.7543-6.9783.0146-3.5475 5.4014-3.5427 5.4112.0049zm-4.5986.0097v.6472c-3.1679.6278-6.7591 2.657-6.7591 6.3165 0 3.5183 3.9416 5.095 6.7591 5.9661v7.8639c-1.5231-.6959-2.9683-1.6351-2.9683-3.5329 0-2.0731-3.7665-2.0731-3.7665 0 0 1.4647.6521 2.8176 1.7519 3.8979 1.3966 1.382 3.09 2.039 4.9829 2.4137v.652c0 2.4965 3.7908 2.4965 3.7908 0v-.6472c3.1776-.6326 6.7542-2.6618 6.7542-6.3164 0-3.5524-3.9318-5.0804-6.7542-5.971v-7.8591c1.528.6959 2.983 1.6351 2.983 3.5427 0 2.0195 3.7615 2.1023 3.7615 0 0-3.6546-3.5718-5.6887-6.7445-6.3213v-.6521c0-2.4964-3.7908-2.4964-3.7908 0z"/></g><defs><clipPath id="clip0"><path fill="#fff" d="M0 0h42v48H0z"/></clipPath></defs></svg>