<svg width="48" height="47" fill="none" xmlns="http://www.w3.org/2000/svg"><g clip-path="url(#clip0)" fill="#FF6B09"><path d="M44.3201-.18799h-23.127c-1.5055 0-2.7302 1.22469-2.7302 2.73023v9.57326L1.28158 19.3269c-.19452.0816-.32675.2652-.34169.4757-.01493.2106.08925.4116.27029.5202l2.19111 1.3114v13.9749c-1.12046.2555-1.96125 1.2583-1.96125 2.4582v1.347c0 .309.25062.5596.55952.5596h3.92359c.3089 0 .55952-.2506.55952-.5596v-1.347c0-1.1983-.84092-2.1998-1.96234-2.4569V22.304l1.73249 1.0369c-.05327.3995-.00675-.6963-.02477 6.5062 0 2.3676 6.06445 3.6359 12.23485 3.7086v10.906c0 .5634.1725 1.0873.4674 1.5221.4907.7259 1.3212 1.2041 2.2614 1.2041h23.127c1.504 0 2.7276-1.2239 2.7276-2.7276 0 .0747-.003-2.3102 0-41.9177 0-1.4851-1.2279-2.73059-2.7262-2.73059zM5.36363 38.0673v.7875H2.55909v-.7875c0-.7752.62764-1.4061 1.39881-1.4061.77517 0 1.40573.6309 1.40573 1.4061zM44.3201 46.066h-23.127c-.5549 0-1.0451-.2809-1.335-.7073-.1736-.2567-.2751-.566-.2751-.8984v-3.7805h26.3414v3.7819c0 .8764-.7303 1.6043-1.6043 1.6043zm1.6043-6.5052H19.5819V33.559c3.0128-.0345 12.2422-.698 12.2422-3.7119-.0033-4.5246.008-6.3594-.0142-6.5147l5.0244-3.0096c.181-.1086.2852-.3096.2703-.5202-.015-.2105-.1472-.3941-.3417-.4757l-17.181-7.2116V7.44208h26.3425V39.5608zm-26.902-13.4286c-3.1036 0-9.07928.4008-11.6753 2.096.01647-5.185-.1799-4.8473.45862-5.287 1.61263-1.1875 6.22508-2.0166 11.21668-2.0166 2.1772 0 11.6826.5985 11.6826 2.6111v4.6933c-2.6203-1.711-8.5657-2.0968-11.6826-2.0968zm.5606-23.5896c0-.887.7217-1.60863 1.6087-1.60863h23.127c.8878 0 1.6057.73175 1.6057 1.60827v3.78079H19.583V2.5426zm-.5606 10.5515l16.2885 6.8367-4.036 2.4153c-2.1457-2.1279-9.2437-2.5406-12.2525-2.5406-3.0127 0-10.11116.4139-12.25231 2.5412l-4.03725-2.4159 16.28956-6.8367zM7.3471 29.8471c0-.9056 4.0099-2.5958 11.6753-2.5958 7.6702 0 11.6826 1.6902 11.6826 2.5958 0 .9063-4.0124 2.5965-11.6826 2.5965-7.6654 0-11.6753-1.6902-11.6753-2.5965z"/><path d="M32.7548 41.5234c-1.0203 0-1.8505.8299-1.8505 1.8505 0 1.0207.8302 1.8513 1.8505 1.8513 1.0207 0 1.8509-.8306 1.8509-1.8513 0-1.0206-.8302-1.8505-1.8509-1.8505zm0 2.5827c-.4032 0-.7315-.3285-.7315-.7322 0-.4036.3283-.7314.7315-.7314.4036 0 .7318.3278.7318.7314 0 .4037-.3282.7322-.7318.7322zM34.8896 3.06909h-4.2685v1.11905h4.2685V3.06909z"/></g><defs><clipPath id="clip0"><path fill="#fff" d="M0 0h48v47H0z"/></clipPath></defs></svg>